<svg width="28" height="28" viewBox="0 0 28 28" fill="none" xmlns="http://www.w3.org/2000/svg">
<rect width="28" height="28" rx="2" fill="#DADEC5"/>
<path d="M18.056 8H9V5.003H18.056V8Z" fill="#D71515" fill-opacity="0.78"/>
<path d="M20 14.566V15.543C20 17.6023 18.4916 18.2142 16.9874 18.3125C16.5478 18.3412 16.1086 18.326 15.7076 18.2903C14.7438 18.2045 14 18 14 18C14 18 14.0369 18.1458 14.0834 18.3919C14.3354 19.7247 14.8702 24 11.362 24H4V4H18.056L20.033 2H2V26H12.189C15.352 26 22 18.777 22 16.386V12.543L20 14.566Z" fill="#910707"/>
<path fill-rule="evenodd" clip-rule="evenodd" d="M5 5.003V8H8V5.003H5ZM6 7V6H7V7H6Z" fill="#D71515" fill-opacity="0.78"/>
<path d="M18.056 13.497H9V10.5H18.056V13.497Z" fill="#D71515" fill-opacity="0.78"/>
<path fill-rule="evenodd" clip-rule="evenodd" d="M5 10.5V13.497H8V10.5H5ZM6 12.497V11.497H7V12.497H6Z" fill="#D71515" fill-opacity="0.78"/>
<path fill-rule="evenodd" clip-rule="evenodd" d="M5 16V18.997H8V16H5ZM6 17.997V16.997H7V17.997H6Z" fill="#D71515" fill-opacity="0.78"/>
<path fill-rule="evenodd" clip-rule="evenodd" d="M15.7076 18.2903C16.1086 18.326 16.5478 18.3412 16.9874 18.3125C17.3145 18.2868 17.6471 18.2353 18 18.1538V16H8.944V18.997H14.1803C14.149 18.7606 14.1141 18.5541 14.0834 18.3919C14.06 18.2773 14.0331 18.1561 14 18C14.6373 18.1353 15.1886 18.237 15.7076 18.2903Z" fill="#D71515" fill-opacity="0.78"/>
<path d="M26.0001 5.64999L18.7321 13.003L15.3311 9.60099L22.5981 2.24899L26.0001 5.64999Z" fill="#910707"/>
<path d="M14.318 10.712L17.619 14.011L13.25 15L14.318 10.712Z" fill="#910707"/>
</svg>
